<svg width="48" height="24" viewBox="0 0 48 24" fill="none" xmlns="http://www.w3.org/2000/svg">
<path d="M0 5.02075C13.4489 13.3761 23.9433 9.99347 32.4996 6.62188C33.0296 6.41244 33.5523 6.20299 34.068 5.99634C38.0113 4.41627 41.5459 3 44.7601 3C45.4249 2.99981 46.0878 3.06889 46.7384 3.20612C42.9867 4.71892 40.0578 6.93107 36.6718 9.80575C20.8249 23.2555 6.73302 10.9101 1.05882 5.93916C0.664476 5.5937 0.310792 5.28385 0 5.02075Z" fill="white"/>
<path d="M31.4539 14.4385C30.6887 15.5319 22.1242 27.7693 9.93494 15.7573C8.5713 14.254 7.3001 12.6684 6.12845 11.0091C16.1877 18.9927 24.3528 18.2419 31.5087 14.3623C31.5043 14.3665 31.486 14.3927 31.4539 14.4385Z" fill="white"/>
</svg>
